<svg width="100" height="18" viewBox="0 0 100 18" fill="none" xmlns="http://www.w3.org/2000/svg">
<path fill-rule="evenodd" clip-rule="evenodd" d="M30.6217 12.6062C31.9747 13.7324 37.5251 15.5087 39.7583 15.9083C44.1136 16.6876 47.1239 16.0047 49.3881 13.3226C47.7043 8.76699 45.8707 0 50.0279 0C54.5126 0 51.5486 10.0547 50.7912 13.3226C52.469 15.9514 56.4559 16.6219 60.3008 15.9042C62.7334 15.4498 67.988 13.6996 69.4546 12.6062C66.8913 10.4988 65.8407 11.4512 62.9282 12.2504C54.3113 14.6158 53.8946 6.3072 64.0705 9.31506C68.2647 10.5549 74.6293 4.27983 88.903 5.15975C104.017 6.09167 101.625 20.0978 93.9398 17.731C90.4256 16.6486 90.8383 11.1248 92.9572 12.6815C93.8737 13.9336 91.1592 15.9493 93.9767 17.0318C96.2673 17.9117 98.3578 16.5932 98.8365 14.6377C99.9769 9.97944 95.539 7.36022 92.1352 6.3982C85.3981 4.494 70.5229 8.35509 67.8606 10.754C72.1222 12.4837 69.6903 12.3688 74.0496 10.834C88.1199 5.88093 89.8657 18.8662 78.22 16.1457C76.5112 15.7468 72.1895 13.7769 71.5675 13.7311C70.1452 13.6264 63.8757 17.3116 56.4453 16.8005C52.3046 16.5152 50.8929 15.2938 49.7664 13.9753C47.4184 17.7139 39.8666 17.003 35.3442 15.8747C33.8407 15.4998 29.1691 13.6968 28.4731 13.7646C27.6794 13.8419 23.6272 15.7208 21.8186 16.1573C10.274 18.9421 12.0053 5.88229 25.7441 10.7601C26.337 10.9709 30.765 13.3753 32.0691 10.4557C26.4051 8.02392 16.5217 4.79916 9.57998 6.02872C6.10615 6.64384 2.20378 8.87168 1.34341 11.4519C-0.342993 16.5104 5.08202 19.2432 7.54494 15.8104C8.24485 14.1176 5.79911 13.5121 7.07084 12.3633C10.2231 11.5682 8.61858 18.5651 3.90999 17.9055C-2.74912 16.9729 -2.90429 2.46458 19.6046 5.59697C27.7045 6.72458 31.5184 9.13647 33.7231 9.59354C35.1382 9.88707 37.055 8.86415 38.7923 8.73962C45.2401 8.27914 45.1153 12.5966 40.1531 12.6513C36.1517 12.6958 33.9826 9.6948 30.6224 12.6048L30.6217 12.6062ZM14.9093 12.4912C17.6132 8.95926 25.472 11.1112 27.2489 12.743C26.588 13.2692 26.4295 13.7365 24.1785 14.676C21.8384 15.5073 19.2157 16.3462 16.6254 15.5484C15.0274 15.0564 14.3117 13.7112 14.9093 12.4912ZM50.1811 12.2654C49.7288 12.2654 46.8789 1.83715 50.0563 1.83715C52.5819 1.83715 50.6341 12.2654 50.1811 12.2654ZM36.0454 10.0978C37.537 9.50596 40.3327 9.11047 41.8052 9.49159C42.6636 9.76665 42.9898 9.86107 42.9535 10.8142C42.3684 12.7423 37.0095 11.7317 36.0454 10.0978ZM64.2732 10.3907C63.5026 10.7519 56.7775 13.263 57.1486 10.5083C57.4266 8.44198 63.0761 9.45943 64.2732 10.3907ZM72.6392 12.912C75.6739 11.7988 86.6289 8.07798 85.1386 14.5337C83.338 16.9045 79.1134 16.0184 75.3319 14.4892C74.0984 13.9904 73.3206 13.7523 72.6392 12.912Z" fill="#1C1613" fill-opacity="0.52"/>
</svg>
