<svg width="123" height="24" viewBox="0 0 123 24" fill="none" xmlns="http://www.w3.org/2000/svg">
<g clip-path="url(#clip0)">
<path fill-rule="evenodd" clip-rule="evenodd" d="M28.3294 22.2609V9.73922C28.3294 8.3288 28.6613 7.93776 29.764 7.65227L29.7892 21.9376C29.6258 23.5212 30.1208 22.5411 29.0467 23.3044C28.4422 22.897 28.3294 23.2545 28.3294 22.2609V22.2609ZM63.8309 8.00008C63.4992 7.57475 63.5984 8.39101 63.4723 6.95655H59.5277C60.0785 7.72526 59.5865 7.38877 60.6036 7.65227V22.9567C59.5552 23.2001 60.087 22.9119 59.5277 23.6523H64.5482C64.1248 22.5515 65.3268 23.1535 63.4724 22.9567C63.4724 19.6379 63.1682 11.8694 63.8987 9.10937C64.2215 7.89032 64.4393 7.4291 65.9825 7.30446C65.7988 8.06951 65.6872 8.45786 65.3268 9.10334C64.0611 11.3703 64.0174 11.8262 66.6997 11.8262C67.9101 9.60726 67.6061 8.44114 66.3411 6.60885C64.6675 6.60885 64.2165 6.43764 63.8309 8.00019V8.00008ZM38.0117 8.34778C38.0117 7.018 37.9017 8.2212 38.3702 7.30436C38.7788 7.3477 39.8046 6.95234 39.8046 9.0435V14.6087H38.0117V8.34789V8.34778ZM35.1429 12.5218C35.1429 16.1877 34.1655 24 38.7289 24C40.4034 24 41.0782 23.0186 41.6522 21.6181C42.315 20.0012 42.3149 19.0653 42.3149 16.6956C40.6006 17.914 42.2966 17.2426 41.2621 20.8918C40.8146 22.4703 40.3553 23.2613 38.3703 23.3042L38.0118 15.3044C43.1918 15.3044 42.6736 15.7784 42.6736 12.8695C42.6736 6.57909 37.9715 4.50734 35.9624 8.79488C35.4401 9.90957 35.1429 11.0132 35.1429 12.5217V12.5218ZM71.7201 8.34778C71.7201 7.018 71.6101 8.2212 72.0786 7.30436C72.4872 7.3477 73.5131 6.95234 73.5131 9.0435V14.6087H71.7201V8.34789V8.34778ZM68.8513 12.5218C68.8513 16.1877 67.8739 24 72.4373 24C75.8024 24 76.0233 19.2809 76.0233 16.6956C74.9347 17.4693 75.3981 16.6212 75.2902 18.4193C75.1365 20.9838 74.9349 23.2426 72.0786 23.3041L71.7201 15.3042C76.9001 15.3042 76.3819 15.7783 76.3819 12.8694C76.3819 4.44255 68.8513 4.57257 68.8513 12.5217V12.5218ZM118.338 8.34778C118.338 7.018 118.228 8.2212 118.697 7.30436C119.105 7.3477 120.131 6.95234 120.131 9.0435V14.6087H118.338V8.34789V8.34778ZM123 12.8695V14.4771C122.903 15.571 122.223 15.3044 118.338 15.3044L118.697 23.3042C120.682 23.2613 121.141 22.4703 121.588 20.8918C122.623 17.2426 120.927 17.914 122.641 16.6956C122.641 19.0652 122.641 20.0012 121.979 21.6181C121.767 22.1341 121.255 23.0564 120.912 23.3659C120.411 23.8188 119.951 23.9999 119.055 23.9999C114.492 23.9999 115.469 16.1876 115.469 12.5217C115.469 4.57268 123 4.44255 123 12.8694L123 12.8695ZM13.2683 21.5652C13.2683 17.8534 12.8506 10.5364 13.6269 7.30425H14.7026C15.357 10.0287 15.357 20.5799 14.7026 23.3042H13.6269C13.4395 22.5242 13.2683 22.5046 13.2683 21.5652ZM10.3995 12.5217C10.3995 17.0493 9.47464 23.9999 14.7027 23.9999C15.3101 23.9999 15.7892 23.6135 16.1385 23.3054C19.0302 20.7542 18.7645 6.60863 14.7027 6.60863C11.7132 6.60863 10.3995 9.07779 10.3995 12.5217V12.5217ZM97.898 21.5652C97.898 17.8534 97.4802 10.5364 98.2565 7.30425H99.3323C99.9867 10.0287 99.9867 20.5799 99.3323 23.3042H98.2565C98.0692 22.5242 97.898 22.5046 97.898 21.5652ZM95.0291 12.5217C95.0291 17.0493 94.1043 23.9999 99.3324 23.9999C103.995 23.9999 103.686 6.60863 99.3324 6.60863C96.3428 6.60863 95.0291 9.07779 95.0291 12.5217ZM108.297 7.65206C107.892 6.67753 109.514 6.95633 104.353 6.95633C104.904 7.72505 104.412 7.38856 105.429 7.65206V22.9564C104.38 23.1999 104.912 22.9117 104.353 23.6521H108.656C107.886 20.4455 108.297 13.7204 108.297 10.0868C108.297 8.6765 108.629 8.28546 109.732 7.99997C109.732 12.8396 110.374 19.4855 109.373 23.6521H113.677C113.126 22.8833 113.618 23.2198 112.601 22.9564V7.65206C110.696 6.41511 110.301 6.35074 108.298 7.65206H108.297ZM53.073 6.60863H53.4316C53.4316 8.68524 53.6683 9.60499 53.7824 11.138C53.8447 11.9758 53.7458 12.6119 53.8757 13.4822C53.9912 14.2552 54.1488 14.3101 54.1488 15.6521H51.9972L53.073 6.60853V6.60863ZM51.9972 0.347779L52.2539 0.794559C53.2883 2.81025 52.01 9.35648 51.6809 12.215L50.6732 21.6723C50.0701 23.7753 50.2407 22.1799 49.1285 23.6522H53.073C52.4829 22.8711 52.2158 23.2611 51.648 22.5763C50.9212 21.6995 51.9427 18.7242 51.9972 16.3479H54.1488C54.4224 19.5364 55.5376 21.6407 54.1488 23.6523H59.1692C57.0524 20.586 57.808 15.7807 57.2295 12.3162C56.868 10.1503 56.8714 8.54465 56.6203 6.29835C56.4064 4.38411 55.9417 2.22557 55.9417 7.93008e-05C53.9509 7.93008e-05 53.8153 0.347887 51.9972 0.347887V0.347779ZM0.000183105 3.82596V3.98369V4.56244C0.00318424 7.21422 0.0807692 7.13078 1.55488 9.97016C2.59549 11.9746 4.90303 16.7875 5.3622 18.8015C6.94291 25.735 1.07592 24.7605 1.07592 13.9129L0.717453 23.9999C1.65692 23.3896 1.45873 23.8239 1.79319 22.6085C3.11002 23.4638 2.8806 23.9999 5.02063 23.9999C8.68234 23.9999 8.60665 19.9599 8.60665 18.0868C8.60665 14.1179 2.86904 6.38449 2.86904 3.13034C2.86904 2.23215 2.65985 0.695586 3.58631 0.695586C4.88202 0.695586 5.13968 1.02431 5.69277 1.78278C6.53731 2.94059 7.12031 5.13924 7.16722 6.61338C7.22613 8.46616 6.74306 8.22854 7.88949 9.04329V-0.000244141C6.68693 0.421955 7.17444 1.04318 6.45506 1.04318C4.82656 1.04318 6.26532 -0.000244141 3.58631 -0.000244141C1.60245 -0.000244141 0.000294258 2.00542 0.000294258 3.82574L0.000183105 3.82596ZM83.9126 11.1303C83.9126 14.3153 83.9973 16.4844 84.6472 19.4612C85.5403 23.5522 86.9932 23.9668 88.7224 23.9999H89.6503C90.3477 22.9896 90.3758 23.533 90.7261 22.2607C92.5969 22.7452 91.1203 23.3828 92.8776 23.9999L92.8622 14.5935C92.8553 12.6059 92.7815 13.004 93.5948 11.826H88.2158C89.0231 12.8946 87.9848 12.3871 89.6503 12.5217V20.1739C89.6503 21.922 89.3278 21.7314 89.2917 23.3042H87.8573C87.8211 21.7314 87.4987 21.9221 87.4987 20.1739V3.13034C87.4987 1.93124 87.7639 1.78354 87.8573 0.695586C89.6718 0.841997 89.6904 1.88865 90.3002 4.23899C90.6368 5.53621 91.0846 8.29139 91.0846 9.73912C92.094 9.02172 91.7587 9.79432 91.8326 8.02973L91.8018 -2.8513e-05C90.5668 0.319855 90.8529 0.695694 90.3674 0.695694C89.7901 0.695694 83.9126 -3.97642 83.9126 11.1305V11.1303ZM20.0819 6.95633C20.6325 7.72505 20.1407 7.38856 21.1576 7.65206V22.9564C20.1092 23.1999 20.641 22.9117 20.0819 23.6521H24.385C23.61 20.4253 24.0265 12.7821 24.0265 9.04339C24.0265 8.11328 24.5442 8.01463 25.1022 7.65206C25.8929 9.01709 25.4608 19.8926 25.4608 22.2607C25.4608 23.0406 25.177 23.0243 24.7436 23.6521H33.7086C33.1578 22.8833 33.6498 23.2198 32.6328 22.9564L32.6363 10.4313C32.6542 8.05981 32.7841 8.20061 31.9155 6.60863C29.3589 6.60863 29.8081 6.45877 27.9711 7.65206C26.5024 5.52478 25.2715 7.15665 23.5902 7.04614C22.3708 6.96604 21.3171 6.95633 20.0819 6.95633V6.95633Z" fill="#FCFAEF"/>
</g>
<defs>
<clipPath id="clip0">
<rect width="123" height="24" fill="white"/>
</clipPath>
</defs>
</svg>
